<!DOCTYPE svg PUBLIC "-//W3C//DTD SVG 1.1//EN"
 "http://www.w3.org/Graphics/SVG/1.1/DTD/svg11.dtd">
<svg version="1.1"
 width="600px" height="190px"
 viewBox="0 0 600 190"
 xmlns="http://www.w3.org/2000/svg" shape-rendering="crispEdges"
 stroke-width="1" text-rendering="geometricPrecision">
<polygon fill="white" points="133,7 165,7 165,16 133,16"/>
<text x="150" y="16" textLength="31" font-family="Helvetica" font-size="12" fill="black" text-anchor="middle">

probe
</text>
<polygon fill="white" points="430,7 468,7 468,16 430,16"/>
<text x="450" y="16" textLength="37" font-family="Helvetica" font-size="12" fill="black" text-anchor="middle">

remote
</text>
<line x1="150" y1="22" x2="150" y2="50" stroke="black"/>
<line x1="450" y1="22" x2="450" y2="50" stroke="black"/>
<polygon fill="white" points="8,22 292,22 292,44 8,44"/>
<line x1="8" y1="22" x2="292" y2="22" stroke="black"/>
<line x1="8" y1="44" x2="292" y2="44" stroke="black"/>
<line x1="8" y1="22" x2="8" y2="44" stroke="black"/>
<line x1="292" y1="22" x2="292" y2="44" stroke="black"/>
<polygon fill="white" points="104,29 195,29 195,38 104,38"/>
<text x="105" y="38" textLength="89" font-family="Helvetica" font-size="12" fill="black">
Initial Test Setup
</text>
<line x1="150" y1="50" x2="150" y2="78" stroke="black"/>
<line x1="450" y1="50" x2="450" y2="78" stroke="black"/>
<line x1="150" y1="61" x2="450" y2="61" stroke="black"/>
<polygon fill="black" points="450,61 440,67 440,55"/>
<polygon fill="white" points="228,51 370,51 370,60 228,60"/>
<text x="229" y="60" textLength="140" font-family="Helvetica" font-size="12" fill="black">
Establish TCP Connection
</text>
<line x1="150" y1="78" x2="150" y2="106" stroke="black"/>
<line x1="450" y1="78" x2="450" y2="106" stroke="black"/>
<line x1="150" y1="89" x2="450" y2="89" stroke="black"/>
<polygon fill="black" points="450,89 440,95 440,83"/>
<polygon fill="white" points="243,79 356,79 356,88 243,88"/>
<text x="244" y="88" textLength="111" font-family="Helvetica" font-size="12" fill="black">
Write HTTP Request
</text>
<line x1="150" y1="106" x2="150" y2="134" stroke="black"/>
<line x1="450" y1="106" x2="450" y2="134" stroke="black"/>
<line x1="450" y1="117" x2="150" y2="117" stroke="black"/>
<polygon fill="black" points="150,117 160,123 160,111"/>
<polygon fill="white" points="255,107 343,107 343,116 255,116"/>
<text x="256" y="116" textLength="86" font-family="Helvetica" font-size="12" fill="black">
Read Response
</text>
<line x1="150" y1="134" x2="150" y2="162" stroke="black"/>
<line x1="450" y1="134" x2="450" y2="162" stroke="black"/>
<polygon fill="white" points="8,134 292,134 292,156 8,156"/>
<line x1="8" y1="134" x2="292" y2="134" stroke="black"/>
<line x1="8" y1="156" x2="292" y2="156" stroke="black"/>
<line x1="8" y1="134" x2="8" y2="156" stroke="black"/>
<line x1="292" y1="134" x2="292" y2="156" stroke="black"/>
<polygon fill="white" points="55,141 244,141 244,150 55,150"/>
<text x="56" y="150" textLength="187" font-family="Helvetica" font-size="12" fill="black">
Validate response content is empty
</text>
<line x1="150" y1="162" x2="150" y2="190" stroke="black"/>
<line x1="450" y1="162" x2="450" y2="190" stroke="black"/>
<polygon fill="white" points="8,162 292,162 292,184 8,184"/>
<line x1="8" y1="162" x2="292" y2="162" stroke="black"/>
<line x1="8" y1="184" x2="292" y2="184" stroke="black"/>
<line x1="8" y1="162" x2="8" y2="184" stroke="black"/>
<line x1="292" y1="162" x2="292" y2="184" stroke="black"/>
<polygon fill="white" points="109,169 189,169 189,178 109,178"/>
<text x="110" y="178" textLength="78" font-family="Helvetica" font-size="12" fill="black">
Test Complete
</text>
<line x1="150" y1="184" x2="150" y2="190" stroke="black"/>
<line x1="450" y1="184" x2="450" y2="190" stroke="black"/>
</svg>
