<!DOCTYPE svg PUBLIC "-//W3C//DTD SVG 1.1//EN"
 "http://www.w3.org/Graphics/SVG/1.1/DTD/svg11.dtd">
<svg version="1.1"
 width="600px" height="330px"
 viewBox="0 0 600 330"
 xmlns="http://www.w3.org/2000/svg" shape-rendering="crispEdges"
 stroke-width="1" text-rendering="geometricPrecision">
<polygon fill="white" points="133,7 165,7 165,16 133,16"/>
<text x="150" y="16" textLength="31" font-family="Helvetica" font-size="12" fill="black" text-anchor="middle">

probe
</text>
<polygon fill="white" points="430,7 468,7 468,16 430,16"/>
<text x="450" y="16" textLength="37" font-family="Helvetica" font-size="12" fill="black" text-anchor="middle">

remote
</text>
<line x1="150" y1="22" x2="150" y2="50" stroke="black"/>
<line x1="450" y1="22" x2="450" y2="50" stroke="black"/>
<polygon fill="white" points="8,22 292,22 292,44 8,44"/>
<line x1="8" y1="22" x2="292" y2="22" stroke="black"/>
<line x1="8" y1="44" x2="292" y2="44" stroke="black"/>
<line x1="8" y1="22" x2="8" y2="44" stroke="black"/>
<line x1="292" y1="22" x2="292" y2="44" stroke="black"/>
<polygon fill="white" points="104,29 195,29 195,38 104,38"/>
<text x="105" y="38" textLength="89" font-family="Helvetica" font-size="12" fill="black">
Initial Test Setup
</text>
<line x1="150" y1="50" x2="150" y2="78" stroke="black"/>
<line x1="450" y1="50" x2="450" y2="78" stroke="black"/>
<line x1="150" y1="61" x2="450" y2="61" stroke="black"/>
<polygon fill="black" points="450,61 440,67 440,55"/>
<polygon fill="white" points="224,51 374,51 374,60 224,60"/>
<text x="225" y="60" textLength="148" font-family="Helvetica" font-size="12" fill="black">
Write DNS Query over UDP
</text>
<line x1="150" y1="78" x2="150" y2="106" stroke="black"/>
<line x1="450" y1="78" x2="450" y2="106" stroke="black"/>
<line x1="450" y1="89" x2="150" y2="89" stroke="black"/>
<polygon fill="black" points="150,89 160,95 160,83"/>
<polygon fill="white" points="255,79 343,79 343,88 255,88"/>
<text x="256" y="88" textLength="86" font-family="Helvetica" font-size="12" fill="black">
Read Response
</text>
<line x1="150" y1="106" x2="150" y2="134" stroke="black"/>
<line x1="450" y1="106" x2="450" y2="134" stroke="black"/>
<polygon fill="white" points="8,106 292,106 292,128 8,128"/>
<line x1="8" y1="106" x2="292" y2="106" stroke="black"/>
<line x1="8" y1="128" x2="292" y2="128" stroke="black"/>
<line x1="8" y1="106" x2="8" y2="128" stroke="black"/>
<line x1="292" y1="106" x2="292" y2="128" stroke="black"/>
<polygon fill="white" points="101,113 197,113 197,122 101,122"/>
<text x="102" y="122" textLength="94" font-family="Helvetica" font-size="12" fill="black">
Validate IP Match
</text>
<line x1="150" y1="134" x2="150" y2="162" stroke="black"/>
<line x1="450" y1="134" x2="450" y2="162" stroke="black"/>
<line x1="150" y1="145" x2="450" y2="145" stroke="black"/>
<polygon fill="black" points="450,145 440,151 440,139"/>
<polygon fill="white" points="167,135 432,135 432,144 167,144"/>
<text x="168" y="144" textLength="263" font-family="Helvetica" font-size="12" fill="black">
Query Non-matching IPs for Domain over HTTPS
</text>
<line x1="150" y1="162" x2="150" y2="190" stroke="black"/>
<line x1="450" y1="162" x2="450" y2="190" stroke="black"/>
<line x1="450" y1="173" x2="150" y2="173" stroke="black"/>
<polygon fill="black" points="150,173 160,179 160,167"/>
<polygon fill="white" points="252,163 346,163 346,172 252,172"/>
<text x="253" y="172" textLength="92" font-family="Helvetica" font-size="12" fill="black">
Read Responses
</text>
<line x1="150" y1="190" x2="150" y2="218" stroke="black"/>
<line x1="450" y1="190" x2="450" y2="218" stroke="black"/>
<polygon fill="white" points="8,190 292,190 292,212 8,212"/>
<line x1="8" y1="190" x2="292" y2="190" stroke="black"/>
<line x1="8" y1="212" x2="292" y2="212" stroke="black"/>
<line x1="8" y1="190" x2="8" y2="212" stroke="black"/>
<line x1="292" y1="190" x2="292" y2="212" stroke="black"/>
<polygon fill="white" points="43,197 256,197 256,206 43,206"/>
<text x="44" y="206" textLength="211" font-family="Helvetica" font-size="12" fill="black">
Validate response certificate for domain
</text>
<line x1="150" y1="218" x2="150" y2="246" stroke="black"/>
<line x1="450" y1="218" x2="450" y2="246" stroke="black"/>
<line x1="150" y1="229" x2="450" y2="229" stroke="black"/>
<polygon fill="black" points="450,229 440,235 440,223"/>
<polygon fill="white" points="171,219 428,219 428,228 171,228"/>
<text x="172" y="228" textLength="255" font-family="Helvetica" font-size="12" fill="black">
Query Non-matching IPs for Domain over HTTP
</text>
<line x1="150" y1="246" x2="150" y2="274" stroke="black"/>
<line x1="450" y1="246" x2="450" y2="274" stroke="black"/>
<line x1="450" y1="257" x2="150" y2="257" stroke="black"/>
<polygon fill="black" points="150,257 160,263 160,251"/>
<polygon fill="white" points="252,247 346,247 346,256 252,256"/>
<text x="253" y="256" textLength="92" font-family="Helvetica" font-size="12" fill="black">
Read Responses
</text>
<line x1="150" y1="274" x2="150" y2="302" stroke="black"/>
<line x1="450" y1="274" x2="450" y2="302" stroke="black"/>
<polygon fill="white" points="8,274 292,274 292,296 8,296"/>
<line x1="8" y1="274" x2="292" y2="274" stroke="black"/>
<line x1="8" y1="296" x2="292" y2="296" stroke="black"/>
<line x1="8" y1="274" x2="8" y2="296" stroke="black"/>
<line x1="292" y1="274" x2="292" y2="296" stroke="black"/>
<polygon fill="white" points="84,281 215,281 215,290 84,290"/>
<text x="85" y="290" textLength="129" font-family="Helvetica" font-size="12" fill="black">
Check response content
</text>
<line x1="150" y1="302" x2="150" y2="330" stroke="black"/>
<line x1="450" y1="302" x2="450" y2="330" stroke="black"/>
<polygon fill="white" points="8,302 292,302 292,324 8,324"/>
<line x1="8" y1="302" x2="292" y2="302" stroke="black"/>
<line x1="8" y1="324" x2="292" y2="324" stroke="black"/>
<line x1="8" y1="302" x2="8" y2="324" stroke="black"/>
<line x1="292" y1="302" x2="292" y2="324" stroke="black"/>
<polygon fill="white" points="109,309 189,309 189,318 109,318"/>
<text x="110" y="318" textLength="78" font-family="Helvetica" font-size="12" fill="black">
Test Complete
</text>
<line x1="150" y1="324" x2="150" y2="330" stroke="black"/>
<line x1="450" y1="324" x2="450" y2="330" stroke="black"/>
</svg>
