<!DOCTYPE svg PUBLIC "-//W3C//DTD SVG 1.1//EN"
 "http://www.w3.org/Graphics/SVG/1.1/DTD/svg11.dtd">
<svg version="1.1"
 width="600px" height="190px"
 viewBox="0 0 600 190"
 xmlns="http://www.w3.org/2000/svg" shape-rendering="crispEdges"
 stroke-width="1" text-rendering="geometricPrecision">
<polygon fill="white" points="133,7 165,7 165,16 133,16"/>
<text x="150" y="16" textLength="31" font-family="Helvetica" font-size="12" fill="black" text-anchor="middle">

probe
</text>
<polygon fill="white" points="430,7 468,7 468,16 430,16"/>
<text x="450" y="16" textLength="37" font-family="Helvetica" font-size="12" fill="black" text-anchor="middle">

remote
</text>
<line x1="150" y1="22" x2="150" y2="50" stroke="black"/>
<line x1="450" y1="22" x2="450" y2="50" stroke="black"/>
<polygon fill="white" points="8,22 292,22 292,44 8,44"/>
<line x1="8" y1="22" x2="292" y2="22" stroke="black"/>
<line x1="8" y1="44" x2="292" y2="44" stroke="black"/>
<line x1="8" y1="22" x2="8" y2="44" stroke="black"/>
<line x1="292" y1="22" x2="292" y2="44" stroke="black"/>
<polygon fill="white" points="104,29 195,29 195,38 104,38"/>
<text x="105" y="38" textLength="89" font-family="Helvetica" font-size="12" fill="black">
Initial Test Setup
</text>
<line x1="150" y1="50" x2="150" y2="78" stroke="black"/>
<line x1="450" y1="50" x2="450" y2="78" stroke="black"/>
<line x1="150" y1="74" x2="450" y2="74" stroke="black"/>
<polygon fill="black" points="450,74 440,80 440,68"/>
<polygon fill="white" points="228,61 370,61 370,73 228,73"/>
<text x="229" y="72" textLength="140" font-family="Helvetica" font-size="12" fill="black">
Write DNS Query over UDP
</text>
<line x1="150" y1="78" x2="150" y2="106" stroke="black"/>
<line x1="450" y1="78" x2="450" y2="106" stroke="black"/>

<line x1="150" y1="106" x2="150" y2="134" stroke="black"/>
<line x1="450" y1="106" x2="450" y2="134" stroke="black"/>
<line x1="450" y1="104" x2="150" y2="104" stroke="black"/>
<polygon fill="black" points="150,104 160,110 160,98"/>
<polygon fill="white" points="255,91 343,91 343,103 255,103"/>
<text x="256" y="102" textLength="86" font-family="Helvetica" font-size="12" fill="black">
Read Response
</text>
<line x1="150" y1="134" x2="150" y2="162" stroke="black"/>
<line x1="450" y1="134" x2="450" y2="162" stroke="black"/>
<polygon fill="white" points="8,134 292,134 292,156 8,156"/>
<line x1="8" y1="134" x2="292" y2="134" stroke="black"/>
<line x1="8" y1="156" x2="292" y2="156" stroke="black"/>
<line x1="8" y1="134" x2="8" y2="156" stroke="black"/>
<line x1="292" y1="134" x2="292" y2="156" stroke="black"/>
<polygon fill="white" points="55,141 244,141 244,150 55,150"/>
<text x="80" y="150" textLength="135" font-family="Helvetica" font-size="12" fill="black">
Validate response content
</text>
<line x1="150" y1="162" x2="150" y2="190" stroke="black"/>
<line x1="450" y1="162" x2="450" y2="190" stroke="black"/>
<polygon fill="white" points="8,162 292,162 292,184 8,184"/>
<line x1="8" y1="162" x2="292" y2="162" stroke="black"/>
<line x1="8" y1="184" x2="292" y2="184" stroke="black"/>
<line x1="8" y1="162" x2="8" y2="184" stroke="black"/>
<line x1="292" y1="162" x2="292" y2="184" stroke="black"/>
<polygon fill="white" points="109,169 189,169 189,178 109,178"/>
<text x="110" y="178" textLength="78" font-family="Helvetica" font-size="12" fill="black">
Test Complete
</text>
<line x1="150" y1="184" x2="150" y2="190" stroke="black"/>
<line x1="450" y1="184" x2="450" y2="190" stroke="black"/>
</svg>